<?xml version="1.0" standalone="no"?>
<!DOCTYPE svg PUBLIC "-//W3C//DTD SVG 20010904//EN"
 "http://www.w3.org/TR/2001/REC-SVG-20010904/DTD/svg10.dtd">
<svg version="1.0" xmlns="http://www.w3.org/2000/svg"
 width="1024.000000pt" height="1024.000000pt" viewBox="0 0 1024.000000 1024.000000"
 preserveAspectRatio="xMidYMid meet">

<g transform="translate(0.000000,1024.000000) scale(0.100000,-0.100000)"
fill="#000000" stroke="none">
<path d="M1810 6464 c-282 -36 -541 -106 -836 -225 l-101 -41 -7 -97 c-17
-271 1 -801 33 -971 38 -195 133 -425 242 -586 165 -244 440 -483 715 -620
l92 -45 103 52 c202 101 319 187 508 372 236 233 332 394 411 692 59 220 62
263 67 746 4 365 2 447 -9 456 -36 28 -373 148 -532 189 -224 57 -555 95 -686
78z m322 -412 c85 -42 168 -129 198 -209 18 -45 24 -87 28 -185 4 -124 5 -128
27 -128 32 0 85 -40 106 -80 17 -32 19 -63 19 -370 0 -376 1 -367 -76 -426
l-37 -29 -431 0 c-401 0 -433 2 -466 19 -49 26 -69 45 -92 89 -18 35 -19 59
-18 320 2 371 3 380 51 428 27 27 51 41 78 45 l40 6 3 137 c3 125 5 141 32
199 20 42 47 79 84 113 95 87 157 110 292 106 85 -2 103 -6 162 -35z"/>
<path d="M1839 5883 c-35 -18 -64 -43 -84 -71 -29 -42 -30 -49 -33 -163 l-4
-119 237 0 238 0 -5 113 c-5 120 -14 151 -65 201 -70 71 -188 87 -284 39z"/>
<path d="M1885 5231 c-68 -41 -84 -111 -40 -175 22 -32 25 -48 25 -121 0 -69
-3 -86 -17 -94 -10 -5 -15 -13 -11 -16 9 -9 199 -12 204 -4 2 4 -5 14 -16 24
-17 15 -20 31 -20 95 0 65 3 80 21 96 33 30 52 74 45 105 -18 90 -116 136
-191 90z"/>
<path d="M5580 6005 c-158 -44 -220 -140 -220 -341 l0 -74 -75 0 -75 0 0 -105
0 -105 75 0 75 0 0 -385 0 -385 120 0 120 0 0 385 0 385 109 0 108 0 -1 105
-1 105 -107 0 -108 0 0 45 c0 56 19 102 55 135 23 22 36 25 101 25 l74 0 0
101 c0 88 -2 103 -17 109 -38 15 -178 15 -233 0z"/>
<path d="M3713 5940 c-154 -28 -273 -114 -332 -240 -22 -48 -26 -68 -26 -155
0 -115 17 -164 81 -235 52 -57 123 -90 309 -145 244 -71 280 -96 280 -195 0
-66 -20 -102 -73 -133 -45 -26 -139 -39 -202 -27 -99 19 -153 57 -205 145 -9
15 -19 16 -115 4 -58 -6 -110 -15 -116 -18 -19 -10 18 -112 60 -169 45 -61
122 -116 212 -149 92 -34 257 -43 358 -19 194 46 331 193 344 368 6 91 -17
179 -66 244 -49 65 -161 121 -337 170 -224 63 -269 98 -262 206 4 64 20 89 79
119 52 26 165 26 217 -1 41 -20 86 -67 96 -100 7 -23 1 -23 135 -1 119 20 119
19 79 110 -42 96 -118 160 -235 200 -70 23 -208 34 -281 21z"/>
<path d="M8993 5858 l-113 -21 0 -123 0 -124 -75 0 -75 0 0 -105 0 -105 74 0
75 0 3 -312 c3 -350 2 -343 77 -411 73 -66 219 -86 336 -44 l40 14 3 95 3 95
-74 -5 c-67 -4 -75 -2 -103 21 l-29 25 -3 261 -3 261 111 0 110 0 0 105 0 105
-110 0 -110 0 0 145 c0 110 -3 145 -12 144 -7 -1 -64 -10 -125 -21z"/>
<path d="M4719 5610 c-175 -17 -306 -119 -332 -256 l-6 -32 107 -13 107 -14
18 37 c27 54 88 82 172 76 92 -6 135 -53 135 -147 0 -45 5 -43 -162 -56 -267
-20 -422 -137 -422 -320 0 -119 60 -206 183 -264 49 -23 69 -26 156 -26 115 0
164 17 234 80 l41 37 0 -51 0 -51 108 0 108 0 -3 298 c-5 477 -5 479 -35 538
-49 94 -134 147 -263 164 -38 5 -72 9 -75 8 -3 0 -35 -4 -71 -8z m201 -663 c0
-67 -2 -76 -27 -100 -41 -38 -94 -57 -163 -57 -132 0 -200 81 -135 159 38 44
123 66 268 70 l57 1 0 -73z"/>
<path d="M6185 5609 c-220 -32 -375 -242 -375 -509 0 -303 191 -510 472 -510
177 0 333 82 388 203 26 55 25 67 -4 67 -14 0 -57 7 -96 15 l-72 15 -19 -24
c-11 -13 -42 -36 -71 -50 -90 -45 -204 -32 -271 32 -33 31 -67 92 -78 140 l-7
32 329 0 329 0 0 83 c-1 165 -52 310 -142 400 -59 59 -131 93 -223 107 -79 11
-77 11 -160 -1z m172 -216 c42 -19 78 -72 91 -130 l10 -43 -200 0 -200 0 6 28
c14 55 60 116 106 140 54 27 136 29 187 5z"/>
<path d="M7272 5609 c-73 -10 -154 -52 -200 -105 -22 -24 -41 -44 -43 -44 -2
0 -2 29 -1 65 l4 65 -111 0 -111 0 0 -490 0 -490 125 0 125 0 0 322 c0 306 1
324 21 365 52 107 213 130 296 41 45 -48 47 -67 51 -405 l3 -323 125 0 124 0
0 343 c0 373 -6 430 -54 510 -62 107 -206 166 -354 146z"/>
<path d="M8165 5610 c-69 -11 -127 -34 -179 -69 -233 -161 -274 -575 -80 -800
134 -155 380 -196 582 -98 89 43 174 143 172 202 -1 6 -42 17 -93 26 l-92 16
-42 -37 c-100 -88 -262 -80 -343 18 -27 33 -60 109 -60 139 0 10 62 13 325 13
l325 0 0 93 c-1 274 -139 465 -361 497 -72 11 -84 11 -154 0z m159 -214 c38
-16 78 -64 95 -115 21 -64 30 -61 -188 -61 l-200 0 8 28 c30 102 102 161 199
162 29 0 68 -6 86 -14z"/>
</g>
</svg>
